Coordinates
version=1
nRows=12
nColumns=24
inDegrees=yes

Units are S.I. units (second, meters, Newtons, ...)
Angles are in degrees.

endheader
time	pelvis_tilt	pelvis_list	pelvis_rotation	pelvis_tx	pelvis_ty	pelvis_tz	hip_flexion_r	hip_adduction_r	hip_rotation_r	knee_angle_r	ankle_angle_r	subtalar_angle_r	mtp_angle_r	hip_flexion_l	hip_adduction_l	hip_rotation_l	knee_angle_l	ankle_angle_l	subtalar_angle_l	mtp_angle_l	lumbar_extension	lumbar_bending	lumbar_rotation
      0.68316667	      0.97622333	     -2.31893880	      2.42981866	     -0.47023454	      0.99078042	      0.30736722	     10.56165612	      7.03400659	     -1.06074569	    -18.43310407	      8.76147878	     -8.92780573	     -0.62478198	     21.33900031	     -2.00020128	     -0.59553378	    -73.06622617	     -3.89959759	     -8.58707117	     -0.39749900	     -1.54062385	      5.68585068	      2.34418254
      0.68733333	      1.02759703	     -2.19909469	      2.36369412	     -0.46492421	      0.99178929	      0.30746121	      9.92966554	      6.92020615	     -1.04287082	    -17.99546707	      8.82135145	     -8.74028203	     -0.63027985	     21.87664702	     -1.81860600	     -0.59083977	    -72.75871687	     -3.34306865	     -8.93774596	     -0.54760306	     -1.62774848	      5.56017290	      2.46794811
      0.69150000	      1.08803152	     -2.09356451	      2.28855876	     -0.45960088	      0.99277827	      0.30756582	      9.28185622	      6.82417676	     -1.00874829	    -17.54296899	      8.87619496	     -8.56769221	     -0.63472105	     22.38307633	     -1.66368274	     -0.59987611	    -72.38847336	     -2.78223794	     -9.24813553	     -0.68961051	     -1.71702182	      5.45309147	      2.59827920
      0.69566667	      1.13338169	     -1.98738257	      2.20221280	     -0.45429628	      0.99368837	      0.30768118	      8.65906450	      6.72649997	     -0.96142187	    -17.10390001	      8.93027881	     -8.39336226	     -0.63891221	     22.88793941	     -1.51329789	     -0.61982998	    -71.95998750	     -2.22698781	     -9.53370618	     -0.85339513	     -1.80130685	      5.33913492	      2.75058444
      0.69983333	      1.11532615	     -1.87760140	      2.09600345	     -0.44902371	      0.99445659	      0.30780312	      8.12605081	      6.62353870	     -0.88550469	    -16.70651961	      9.00577269	     -8.28087505	     -0.63864388	     23.44380746	     -1.36049409	     -0.65453121	    -71.47486430	     -1.66001493	     -9.81035098	     -0.90480892	     -1.80793939	      5.22958224	      2.82310465
      0.70400000	      1.14456253	     -1.77158255	      1.98175389	     -0.44372777	      0.99526752	      0.30793837	      7.52681972	      6.52682646	     -0.79346019	    -16.27612455	      9.05703291	     -8.13687632	     -0.63888944	     23.91919534	     -1.22411946	     -0.70358966	    -70.91752432	     -1.11220269	    -10.05989641	     -0.96693843	     -1.88102366	      5.11802002	      2.94939654
      0.70816667	      1.24496264	     -1.64979499	      1.86603998	     -0.43836303	      0.99614275	      0.30807625	      6.83646049	      6.40844337	     -0.73935008	    -15.82214358	      9.10559154	     -7.93126637	     -0.64066514	     24.27919218	     -1.08959960	     -0.77878428	    -70.27554614	     -0.62681614	    -10.25142243	     -1.11790234	     -2.00794732	      4.98956323	      3.20971376
      0.71233333	      1.21352720	     -1.54474961	      1.73164306	     -0.43310463	      0.99674448	      0.30821756	      6.33088511	      6.30660113	     -0.63425597	    -15.44242108	      9.18151728	     -7.80911628	     -0.63946734	     24.78514716	     -0.96295778	     -0.84562890	    -69.61089891	     -0.09474656	    -10.46016433	     -1.17260599	     -2.01148779	      4.87526008	      3.29825035
      0.71650000	      1.28073215	     -1.43506362	      1.58801964	     -0.42776273	      0.99745841	      0.30837149	      5.69342249	      6.19733471	     -0.55093886	    -15.01597360	      9.23321360	     -7.62403130	     -0.64009606	     25.14034517	     -0.85535882	     -0.94421518	    -68.85905148	      0.37940995	    -10.59847796	     -1.33451972	     -2.10563994	      4.76671352	      3.57066103
      0.72066667	      1.27473321	     -1.32822628	      1.42275438	     -0.42247365	      0.99800454	      0.30853503	      5.16626898	      6.08879210	     -0.43421041	    -14.64716261	      9.29610619	     -7.49417922	     -0.63889394	     25.56086104	     -0.75235691	     -1.05363379	    -68.06300210	      0.87904420	    -10.75707668	     -1.42346228	     -2.12177044	      4.66513445	      3.69006185
      0.72483333	      1.29704581	     -1.22610144	      1.26339620	     -0.41717624	      0.99853221	      0.30869058	      4.60017960	      5.98360911	     -0.31925782	    -14.25819645	      9.35866553	     -7.34787001	     -0.63715332	     25.92957329	     -0.65817821	     -1.15954040	    -67.21009504	      1.33685868	    -10.87217813	     -1.52304494	     -2.17618571	      4.56097079	      3.86617149
      0.72900000	      1.27363984	     -1.14399786	      1.10756440	     -0.41190548	      0.99891440	      0.30884489	      4.09474067	      5.89747131	     -0.20609688	    -13.88411395	      9.42784340	     -7.21219107	     -0.63457164	     26.33892527	     -0.58376884	     -1.25130037	    -66.32094681	      1.76723981	    -10.96337604	     -1.61749880	     -2.18223957	      4.47947997	      4.03605727
